# xmcd
#
# Track frame offsets:
#	150
#	37574
#	66313
#	104654
#	142235
#	185646
#
# Disc length: 3209 seconds
#
# Revision: 0
# Processed by: cddbd v1.5.2PL0 Copyright (c) Steve Scherf et al.
# Submitted via: audiograbber 1.83.01
#
DISCID=570c8706
DTITLE=Grateful Dead - 92-03-08 Capital Centre, Landover MD
DYEAR=1900
DGENRE=
TTITLE0=Samson and Delilah
TTITLE1=Way To Go Home
TTITLE2=Foolish Heart
TTITLE3=Looks Like Rain
TTITLE4=Wave To The Wind
TTITLE5=Drums
EXTD=
EXTT0=
EXTT1=
EXTT2=
EXTT3=
EXTT4=
EXTT5=
PLAYORDER=
